<?xml version="1.0" standalone="no"?>
<!DOCTYPE svg PUBLIC "-//W3C//DTD SVG 20010904//EN"
 "http://www.w3.org/TR/2001/REC-SVG-20010904/DTD/svg10.dtd">
<svg version="1.0" xmlns="http://www.w3.org/2000/svg"
 width="2560.000000pt" height="1460.000000pt" viewBox="0 0 2560.000000 1460.000000"
 preserveAspectRatio="xMidYMid meet">
<metadata>
Created by potrace 1.16, written by Peter Selinger 2001-2019
</metadata>
<g transform="translate(0.000000,1460.000000) scale(0.100000,-0.100000)"
fill="#000000" stroke="none">
<path d="M0 7395 l0 -7205 2143 0 c2808 0 3301 12 3887 96 1921 274 3315 1334
3845 2924 l48 145 29 -115 c77 -312 211 -677 349 -953 627 -1249 1798 -2040
3354 -2267 132 -19 188 -20 963 -20 l823 0 181 26 c1010 142 1835 476 2506
1013 53 43 117 96 141 117 l44 40 -597 702 c-329 386 -601 700 -604 698 -4 -2
-77 -51 -162 -108 -454 -302 -952 -489 -1510 -567 -816 -113 -1569 24 -2110
384 -520 346 -855 903 -936 1554 -8 63 -14 117 -14 118 0 2 1487 3 3305 3
l3305 0 0 -1895 0 -1895 1240 0 1240 0 0 7170 0 7170 -1240 0 -1240 0 0 -4167
-1 -4168 -39 150 c-73 283 -157 515 -274 760 -360 750 -926 1360 -1631 1760
-556 316 -1189 503 -1945 575 -193 18 -637 24 -845 11 -666 -42 -1265 -193
-1818 -459 -1177 -566 -2081 -1655 -2462 -2967 -31 -107 -46 -144 -51 -130
-144 405 -346 770 -597 1085 -267 335 -572 612 -952 865 -365 242 -684 396
-1163 560 -9 3 16 28 60 62 435 334 790 777 1005 1254 319 709 367 1575 133
2357 -216 717 -664 1319 -1294 1737 -612 406 -1387 642 -2406 735 -484 43
-467 43 -2622 47 l-2088 4 0 -7206z m3615 5245 c842 -45 1366 -209 1747 -547
369 -327 559 -815 534 -1371 -38 -856 -474 -1451 -1251 -1706 -380 -124 -711
-155 -1677 -156 l-418 0 0 1895 0 1895 438 0 c240 0 523 -5 627 -10z m11225
-5081 c321 -30 661 -145 907 -304 307 -200 526 -451 694 -800 94 -195 145
-347 199 -592 l18 -83 -2114 0 c-1163 0 -2114 3 -2114 6 0 18 54 214 81 295
298 886 1005 1438 1904 1488 144 8 268 5 425 -10z m-10350 -639 c776 -39 1215
-132 1650 -349 653 -327 1057 -862 1181 -1566 27 -153 37 -479 20 -662 -75
-814 -492 -1434 -1196 -1779 -387 -188 -769 -280 -1315 -314 -95 -6 -616 -10
-1222 -10 l-1058 0 0 2345 0 2345 873 0 c479 0 960 -5 1067 -10z"/>
<path d="M23120 7360 l0 -7170 1220 0 1220 0 0 7170 0 7170 -1220 0 -1220 0 0
-7170z"/>
</g>
</svg>
