<?xml version="1.0" standalone="no"?>
<!DOCTYPE svg PUBLIC "-//W3C//DTD SVG 20010904//EN"
 "http://www.w3.org/TR/2001/REC-SVG-20010904/DTD/svg10.dtd">
<svg version="1.0" xmlns="http://www.w3.org/2000/svg"
 width="60" height="22" viewBox="350 180 127 330"
 preserveAspectRatio="xMidYMid meet">
<metadata>
Created by potrace 1.16, written by Peter Selinger 2001-2019
</metadata>
<g transform="translate(0.000000,650.000000) scale(0.100000,-0.100000)"
fill="currentColor" stroke="none">
<path d="M1302 4167 c-88 -28 -166 -139 -198 -284 -21 -94 -29 -344 -15 -487
6 -66 10 -121 8 -122 -1 -1 -23 2 -49 8 -147 34 -346 -69 -426 -221 -159 -296
2 -663 310 -711 136 -21 255 18 359 117 l57 54 21 -34 c27 -44 103 -114 137
-127 37 -15 104 -12 155 5 160 55 302 321 379 708 9 46 15 57 28 53 9 -2 43
-10 75 -16 37 -7 61 -18 67 -30 6 -10 10 -85 10 -167 0 -395 84 -563 281 -563
66 0 142 41 224 120 l72 71 12 -30 c16 -38 90 -115 132 -137 56 -28 146 -30
207 -4 76 33 160 127 216 242 25 50 47 85 50 77 34 -115 98 -216 170 -270 144
-108 352 -86 480 51 56 60 113 174 129 259 11 57 14 62 47 72 19 6 59 24 88
40 48 27 52 28 52 10 0 -38 52 -186 93 -265 85 -165 200 -243 342 -233 154 10
266 87 334 231 22 44 44 104 51 132 11 49 14 52 68 78 32 15 68 36 82 46 l24
18 23 -91 c30 -115 90 -237 148 -304 142 -162 383 -160 542 6 55 57 111 172
126 255 l10 62 56 11 c31 6 63 14 71 17 11 4 22 -13 43 -72 38 -102 96 -199
162 -270 144 -156 332 -169 516 -37 l49 35 62 -34 c206 -112 441 -110 637 6
109 65 281 265 281 327 0 58 -68 151 -109 151 -10 0 -29 -25 -48 -63 -116
-221 -272 -327 -467 -315 -48 3 -100 13 -125 24 l-43 19 56 39 c86 59 160 145
208 242 38 77 42 94 46 174 5 103 -11 165 -59 223 -53 65 -99 82 -214 82 -90
0 -106 -3 -160 -29 -112 -55 -195 -168 -225 -307 -19 -86 -9 -280 18 -346 l22
-53 -53 -30 c-78 -44 -125 -48 -192 -16 -79 39 -158 158 -195 294 -11 42 -10
44 23 81 129 143 226 363 268 612 26 152 23 393 -5 470 -22 61 -71 118 -120
140 -57 26 -164 25 -215 -1 -202 -102 -284 -568 -195 -1107 6 -39 4 -43 -19
-52 -14 -5 -40 -13 -59 -16 -32 -6 -34 -4 -47 30 -16 47 -132 165 -188 194
-88 45 -154 12 -168 -83 -15 -96 61 -240 153 -293 26 -14 49 -28 51 -29 10 -8
-44 -145 -74 -185 -36 -50 -102 -89 -151 -89 -46 0 -115 40 -151 88 -52 69
-75 158 -76 288 0 110 1 112 41 196 115 241 195 530 209 751 9 163 -21 248
-109 297 -50 28 -137 32 -184 7 -153 -79 -230 -408 -222 -942 l3 -160 -49 -32
c-26 -18 -54 -33 -61 -33 -8 0 -19 16 -25 35 -25 77 -160 191 -247 210 -87 18
-130 -93 -84 -216 33 -87 92 -154 178 -204 1 0 -4 -24 -11 -52 -20 -76 -66
-153 -110 -184 -139 -101 -291 11 -327 241 -19 124 -6 202 51 323 113 236 192
545 194 757 1 116 -1 128 -24 169 -40 70 -89 104 -159 109 -77 6 -122 -10
-165 -58 -114 -126 -159 -344 -160 -776 -1 -300 1 -290 -69 -325 -44 -23 -67
-19 -67 12 0 83 -117 191 -223 205 -85 12 -122 -37 -115 -146 7 -98 71 -204
156 -262 l24 -16 -22 -69 c-39 -124 -118 -202 -207 -203 -109 -1 -200 116
-224 286 -16 119 -5 189 51 313 165 365 243 789 171 929 -26 52 -82 99 -126
108 -180 33 -275 -90 -331 -431 -13 -76 -18 -177 -19 -425 l-2 -325 -33 -90
c-46 -128 -104 -239 -152 -291 -34 -37 -47 -44 -72 -42 -72 7 -98 126 -100
446 l-1 234 -25 20 c-21 17 -35 19 -83 15 -32 -3 -64 -10 -71 -16 -23 -19 -37
-96 -46 -260 -9 -151 -23 -230 -50 -281 -25 -49 -82 -110 -126 -136 -38 -23
-49 -25 -70 -15 -56 25 -67 120 -51 431 8 140 7 158 -10 190 -24 46 -79 75
-172 90 -131 20 -152 28 -211 84 -30 29 -68 56 -83 60 -39 9 -104 -10 -118
-36 -7 -13 -11 -68 -10 -138 3 -321 -124 -680 -241 -680 -42 0 -99 60 -126
133 l-21 54 45 119 c56 149 97 294 131 454 23 107 27 150 27 305 1 159 -2 189
-22 258 -38 131 -86 208 -161 254 -40 25 -110 29 -169 10z m5344 -182 c34 -23
49 -97 47 -225 -3 -203 -69 -432 -171 -590 l-36 -55 -8 35 c-5 19 -12 134 -15
255 -4 177 -2 242 11 325 19 126 61 221 109 251 38 23 37 23 63 4z m-5223 -47
c30 -66 39 -116 44 -273 4 -123 2 -185 -11 -268 -19 -119 -58 -262 -86 -317
l-18 -35 -12 30 c-21 55 -58 210 -69 289 -25 180 -6 433 40 532 37 78 86 96
112 42z m2215 -70 c4 -123 -56 -408 -116 -548 l-19 -45 -7 88 c-8 103 0 264
20 395 21 138 55 206 98 200 19 -3 21 -11 24 -90z m1006 76 c28 -72 -28 -398
-101 -596 l-27 -73 -9 50 c-19 118 11 474 49 563 27 65 73 95 88 56z m1002 -6
c33 -53 -42 -464 -113 -624 l-17 -39 -6 50 c-14 122 6 416 35 521 24 82 77
131 101 92z m1755 -807 c72 -72 11 -221 -140 -345 -37 -31 -73 -56 -78 -56
-14 0 -35 74 -40 146 -13 147 79 284 190 284 29 0 46 -7 68 -29z m-6310 -47
c38 -19 45 -32 75 -124 14 -47 40 -118 56 -158 l30 -73 -27 -54 c-82 -169
-301 -205 -414 -68 -104 125 -91 340 26 443 27 23 62 43 86 49 50 11 132 4
168 -15z"/>
<path d="M2817 3746 c-128 -46 -146 -197 -34 -280 39 -29 125 -29 163 0 53 39
69 71 69 134 0 44 -5 66 -21 87 -43 57 -115 81 -177 59z"/>
</g>
</svg>
