<?xml version="1.0" standalone="no"?>
<!DOCTYPE svg PUBLIC "-//W3C//DTD SVG 20010904//EN"
 "http://www.w3.org/TR/2001/REC-SVG-20010904/DTD/svg10.dtd">
<svg version="1.0" xmlns="http://www.w3.org/2000/svg"
 width="640.000000pt" height="240.000000pt" viewBox="0 0 640.000000 240.000000"
 preserveAspectRatio="xMidYMid meet">
<metadata>
Created by potrace 1.16, written by Peter Selinger 2001-2019
</metadata>
<g transform="translate(0.000000,240.000000) scale(0.100000,-0.100000)"
fill="#000000" stroke="none">
<path d="M5306 1995 c-79 -28 -138 -115 -139 -206 -2 -129 82 -146 197 -38 71
66 106 128 106 189 0 37 -3 42 -35 56 -42 17 -78 17 -129 -1z"/>
<path d="M4974 1946 c-24 -20 -28 -32 -32 -87 -3 -55 0 -69 20 -99 26 -39 51
-48 75 -28 49 40 72 188 35 221 -26 24 -66 21 -98 -7z"/>
<path d="M4765 1855 c-29 -28 -31 -60 -10 -112 21 -51 44 -73 72 -73 34 0 57
58 49 124 -9 83 -61 112 -111 61z"/>
<path d="M4615 1725 c-29 -28 -30 -43 -11 -89 29 -70 97 -101 115 -53 5 13 5
42 0 68 -4 24 -8 47 -9 50 -1 13 -42 49 -56 49 -8 0 -26 -11 -39 -25z"/>
<path d="M1307 1670 c-97 -31 -169 -168 -137 -264 28 -86 123 -68 222 42 71
79 101 180 62 213 -19 15 -109 22 -147 9z"/>
<path d="M965 1614 c-40 -44 -44 -117 -9 -185 29 -58 73 -48 108 23 30 60 34
132 10 166 -22 32 -77 30 -109 -4z"/>
<path d="M4945 1621 c-122 -35 -215 -104 -256 -188 -33 -68 -24 -177 20 -260
42 -79 142 -175 218 -210 75 -35 175 -43 238 -18 84 32 174 144 175 217 0 40
-38 62 -98 56 -75 -7 -105 -26 -114 -72 -17 -82 -67 -99 -124 -42 -60 60 -44
86 107 186 173 114 209 155 209 235 0 45 -38 85 -98 103 -58 17 -206 14 -277
-7z"/>
<path d="M759 1529 c-47 -47 -2 -189 60 -189 20 0 31 7 39 25 17 38 15 136 -4
163 -20 29 -67 29 -95 1z"/>
<path d="M617 1409 c-44 -26 -40 -99 10 -151 67 -70 118 -2 77 102 -22 54 -50
70 -87 49z"/>
<path d="M953 1295 c-127 -35 -228 -107 -269 -190 -23 -49 -26 -64 -22 -125
17 -234 286 -442 486 -376 65 22 134 83 166 148 48 97 31 133 -64 132 -82 -1
-123 -27 -131 -82 -6 -46 -13 -56 -44 -66 -25 -7 -78 24 -100 58 -16 24 -16
28 1 57 12 19 70 65 148 117 71 48 142 103 158 123 58 72 44 159 -32 196 -48
23 -225 28 -297 8z"/>
<path d="M1655 1289 c-39 -11 -92 -62 -112 -108 -9 -21 -15 -67 -16 -111 -1
-170 93 -254 260 -230 101 14 103 16 103 147 l0 113 -80 0 -80 0 0 -45 0 -45
40 0 c39 0 40 -1 40 -34 0 -22 -6 -36 -16 -40 -25 -9 -83 -7 -105 4 -57 31
-72 172 -23 229 32 39 79 48 140 28 44 -14 46 -14 53 7 24 64 25 63 -25 80
-51 17 -130 20 -179 5z"/>
<path d="M2444 1281 c-70 -32 -104 -100 -104 -210 0 -158 65 -235 197 -234 72
1 116 22 150 72 42 62 56 170 32 254 -13 47 -63 106 -106 123 -45 19 -121 17
-169 -5z m132 -85 c48 -34 59 -178 17 -234 -16 -21 -28 -27 -59 -27 -32 0 -42
5 -61 34 -43 63 -24 209 29 231 33 13 51 12 74 -4z"/>
<path d="M1950 1066 l0 -226 45 0 44 0 3 124 3 124 89 -124 c84 -116 92 -124
123 -124 l33 0 0 225 0 225 -45 0 -44 0 -3 -121 -3 -120 -86 118 c-80 111 -87
118 -122 121 l-37 3 0 -225z"/>
<path d="M2781 1083 c-12 -115 -21 -216 -21 -225 0 -15 9 -18 49 -18 l49 0 7
78 c4 42 10 101 14 131 l6 54 39 -132 39 -132 36 3 36 3 34 113 c19 61 38 112
41 112 4 0 11 -42 14 -92 11 -141 10 -138 67 -138 27 0 49 2 49 4 0 13 -41
388 -46 414 l-5 33 -56 -3 -56 -3 -40 -125 c-33 -105 -41 -121 -48 -100 -4 14
-22 71 -39 128 l-32 102 -57 0 -58 0 -22 -207z"/>
<path d="M3300 1065 l0 -225 135 0 135 0 0 50 0 50 -85 0 -85 0 0 45 0 45 65
0 65 0 0 45 0 45 -65 0 -65 0 0 40 0 40 85 0 85 0 0 45 0 45 -135 0 -135 0 0
-225z"/>
<path d="M4573 802 c-29 -21 -45 -76 -38 -122 10 -61 46 -90 110 -90 62 0 75
13 75 75 l0 55 -45 0 c-38 0 -45 -3 -45 -20 0 -13 7 -20 20 -20 13 0 20 -7 20
-20 0 -28 -44 -27 -64 2 -20 29 -20 58 0 87 14 20 22 22 54 17 33 -5 38 -3 43
16 4 13 1 26 -6 30 -22 14 -101 8 -124 -10z"/>
<path d="M4740 705 l0 -115 25 0 c22 0 24 4 27 57 l3 57 39 -57 c24 -34 47
-57 58 -57 16 0 18 10 18 115 l0 115 -25 0 c-24 0 -25 -3 -25 -57 l0 -57 -42
57 c-24 33 -49 57 -60 57 -16 0 -18 -11 -18 -115z"/>
<path d="M4956 789 c-21 -25 -26 -41 -26 -86 0 -47 4 -59 29 -84 76 -75 175
-4 163 118 -8 80 -114 114 -166 52z"/>
<path d="M5157 813 c-3 -5 -8 -46 -11 -93 -4 -47 -10 -95 -13 -107 -4 -20 -1
-23 26 -23 29 0 31 2 31 38 0 63 16 70 30 13 10 -44 15 -52 33 -49 16 2 25 16
38 58 l16 54 7 -57 c7 -53 9 -57 33 -57 l26 0 -7 78 c-13 145 -15 152 -47 152
-26 0 -30 -5 -47 -61 l-18 -60 -19 60 c-17 56 -21 61 -46 61 -15 0 -30 -3 -32
-7z"/>
<path d="M5400 705 l0 -115 70 0 c68 0 70 1 70 25 0 23 -4 25 -45 25 -38 0
-45 3 -45 20 0 16 7 20 30 20 25 0 30 4 30 25 0 21 -5 25 -30 25 -23 0 -30 4
-30 20 0 17 7 20 40 20 36 0 40 3 40 25 0 24 -2 25 -65 25 l-65 0 0 -115z"/>
</g>
</svg>
