<?xml version="1.0" standalone="no"?>
<!DOCTYPE svg PUBLIC "-//W3C//DTD SVG 20010904//EN"
 "http://www.w3.org/TR/2001/REC-SVG-20010904/DTD/svg10.dtd">
<svg version="1.0" xmlns="http://www.w3.org/2000/svg"
 width="2560.000000pt" height="325.000000pt" viewBox="0 0 2560.000000 325.000000"
 preserveAspectRatio="xMidYMid meet">
<metadata>
Created by potrace 1.16, written by Peter Selinger 2001-2019
</metadata>
<g transform="translate(0.000000,325.000000) scale(0.100000,-0.100000)"
fill="#000000" stroke="none">
<path d="M4873 2466 c-265 -51 -470 -199 -587 -426 -67 -130 -89 -233 -84
-390 6 -145 32 -239 100 -355 56 -95 191 -228 288 -282 327 -183 737 -132 965
120 64 70 136 206 162 307 18 67 25 278 11 313 -7 16 -34 17 -373 17 l-365 0
0 -115 0 -115 255 0 255 0 -7 -32 c-27 -143 -123 -264 -256 -327 -92 -43 -155
-54 -266 -49 -302 16 -526 256 -524 563 1 305 250 555 553 555 124 0 234 -37
333 -112 l52 -38 78 77 78 78 -52 48 c-63 56 -209 131 -299 152 -96 22 -233
27 -317 11z"/>
<path d="M9110 1675 l0 -745 115 0 115 0 0 745 0 745 -115 0 -115 0 0 -745z"/>
<path d="M21233 2300 c-71 -13 -174 -53 -243 -95 -309 -188 -418 -611 -243
-948 49 -96 172 -219 268 -269 117 -61 203 -82 335 -82 138 -1 195 12 318 70
66 32 111 62 158 107 l65 62 -60 59 -60 60 -49 -46 c-92 -87 -184 -131 -307
-149 -175 -26 -376 60 -480 206 -67 94 -97 180 -103 300 -13 274 141 490 394
555 177 46 333 10 450 -104 l58 -56 58 57 58 57 -48 49 c-59 61 -157 119 -247
147 -80 25 -239 34 -322 20z"/>
<path d="M11405 2286 c-113 -37 -191 -101 -237 -193 -28 -57 -32 -75 -32 -147
0 -181 103 -287 370 -379 179 -62 268 -118 303 -189 73 -152 -52 -312 -244
-312 -144 0 -267 98 -318 256 -5 15 -14 14 -82 -14 -72 -29 -76 -33 -70 -57
22 -95 132 -234 223 -284 108 -59 241 -72 377 -37 134 34 224 103 274 209 23
50 26 68 26 161 -1 88 -4 112 -23 150 -57 117 -160 191 -373 270 -140 51 -227
97 -260 136 -79 92 -12 239 128 280 129 37 256 -15 315 -131 11 -22 22 -42 24
-44 2 -2 38 11 79 29 84 37 84 37 40 116 -34 59 -107 121 -183 157 -61 29 -76
32 -182 34 -75 2 -129 -2 -155 -11z"/>
<path d="M19905 2272 c-34 -11 -67 -33 -102 -68 -64 -63 -83 -120 -83 -246 l0
-88 -90 0 -90 0 0 -80 0 -80 90 0 90 0 0 -390 0 -390 85 0 85 0 0 395 0 395
120 0 120 0 0 75 0 75 -120 0 -120 0 0 73 c1 171 96 236 253 172 15 -6 17 1
17 78 0 79 -1 85 -22 91 -45 12 -183 5 -233 -12z"/>
<path d="M23822 2011 l3 -269 -33 39 c-46 53 -154 105 -237 114 -225 24 -423
-127 -480 -367 -56 -240 49 -485 253 -585 73 -37 80 -38 182 -38 99 0 109 2
172 33 42 20 82 50 107 79 l41 46 0 -67 0 -66 80 0 80 0 0 675 0 675 -85 0
-86 0 3 -269z m-166 -286 c99 -48 161 -153 171 -286 18 -236 -149 -411 -351
-369 -154 32 -256 187 -243 371 16 242 224 381 423 284z"/>
<path d="M6220 1913 c-140 -23 -273 -115 -352 -243 -83 -136 -87 -344 -9 -498
97 -189 313 -296 532 -263 282 44 471 313 417 590 -42 213 -178 358 -380 406
-59 14 -152 17 -208 8z m173 -219 c63 -21 130 -84 164 -152 23 -46 27 -70 27
-132 1 -98 -28 -164 -96 -225 -88 -79 -194 -93 -298 -40 -110 57 -175 192
-151 319 33 180 194 285 354 230z"/>
<path d="M7278 1904 c-169 -40 -296 -158 -356 -328 -34 -96 -35 -231 -3 -325
125 -361 581 -465 849 -194 108 109 152 215 152 363 0 228 -153 427 -371 485
-67 18 -196 18 -271 -1z m252 -230 c55 -30 83 -61 121 -134 34 -65 34 -194 -1
-264 -52 -106 -162 -173 -267 -163 -64 7 -145 49 -184 97 -104 125 -87 331 35
436 81 70 199 81 296 28z"/>
<path d="M8361 1904 c-130 -35 -249 -128 -310 -243 -45 -85 -61 -150 -61 -252
0 -144 41 -247 141 -354 159 -170 417 -203 580 -74 l42 33 -6 -64 c-13 -140
-61 -224 -151 -266 -122 -57 -281 -1 -343 120 -9 17 -17 32 -18 34 -1 1 -33
-11 -71 -27 -144 -60 -142 -58 -94 -131 96 -146 250 -230 420 -230 175 0 334
90 409 230 67 125 65 103 68 683 l4 527 -111 0 -110 0 0 -36 c0 -36 0 -36 -22
-20 -109 78 -243 104 -367 70z m211 -206 c55 -16 122 -79 153 -143 81 -172 3
-383 -160 -431 -128 -37 -249 20 -318 150 -18 34 -22 57 -22 136 0 87 3 100
30 149 67 121 193 176 317 139z"/>
<path d="M9801 1904 c-91 -24 -169 -72 -224 -139 -142 -170 -173 -390 -82
-583 148 -312 564 -377 813 -125 34 35 62 67 62 71 0 4 -40 33 -89 65 l-90 59
-37 -42 c-88 -97 -225 -124 -332 -65 -29 16 -66 47 -83 69 -26 37 -28 41 -12
47 82 32 646 269 650 273 10 10 -30 108 -68 166 -44 64 -110 128 -174 165 -88
52 -226 68 -334 39z m256 -230 c21 -17 39 -38 41 -45 2 -10 -40 -33 -130 -71
-73 -31 -171 -72 -216 -92 l-84 -36 7 43 c15 89 78 175 160 217 31 16 55 20
112 17 63 -2 76 -6 110 -33z"/>
<path d="M13563 1885 c-65 -20 -127 -60 -172 -111 l-41 -47 0 72 0 71 -81 0
-81 0 6 -72 c3 -40 8 -252 12 -470 l7 -398 83 0 82 0 4 293 3 292 33 67 c55
113 145 169 246 154 62 -10 107 -43 136 -101 25 -50 25 -51 28 -377 l3 -328
79 0 78 0 4 293 c5 341 9 359 92 442 75 74 159 94 242 56 22 -10 50 -31 62
-46 46 -59 52 -107 52 -437 l0 -308 86 0 86 0 -4 353 c-4 339 -5 354 -27 410
-32 80 -77 135 -141 171 -52 30 -60 31 -165 31 -100 0 -115 -3 -167 -28 -31
-15 -80 -52 -109 -81 l-53 -54 -31 44 c-18 25 -47 56 -66 70 -69 50 -195 68
-286 39z"/>
<path d="M15166 1884 c-61 -19 -122 -57 -163 -103 l-33 -35 0 62 0 62 -80 0
-80 0 0 -470 0 -470 89 0 90 0 3 298 c3 297 3 297 29 352 50 104 119 154 214
154 86 1 132 -25 168 -94 l27 -54 0 -328 0 -328 84 0 85 0 3 298 c3 287 4 299
27 349 30 67 105 138 162 153 99 27 187 -11 226 -97 24 -53 24 -54 23 -378
l-1 -325 86 0 85 0 0 344 c0 317 -2 349 -20 410 -42 135 -136 207 -278 215
-42 2 -100 -2 -129 -9 -65 -14 -162 -77 -201 -131 l-29 -39 -13 30 c-19 46
-101 114 -160 133 -63 21 -148 21 -214 1z"/>
<path d="M16700 1884 c-153 -41 -270 -168 -315 -340 -24 -93 -20 -231 10 -320
70 -207 217 -314 434 -314 142 0 241 35 333 118 45 41 101 118 96 133 -2 5
-34 24 -72 41 l-69 32 -16 -24 c-36 -55 -75 -91 -129 -117 -177 -87 -393 32
-427 235 l-7 42 372 0 372 0 -7 77 c-18 193 -84 317 -206 390 -101 60 -249 79
-369 47z m255 -168 c60 -28 97 -66 124 -126 39 -86 56 -80 -249 -80 -304 0
-289 -5 -249 77 25 51 105 126 151 140 63 20 168 15 223 -11z"/>
<path d="M17801 1885 c-64 -18 -137 -68 -168 -115 l-23 -33 0 67 0 66 -78 0
-79 0 -6 -277 c-4 -153 -7 -365 -7 -470 l0 -193 84 0 85 0 3 293 c3 272 4 295
24 338 41 88 113 148 194 164 31 6 71 0 138 -20 22 -7 22 -6 22 83 0 66 -4 91
-13 95 -38 15 -126 15 -176 2z"/>
<path d="M18909 1890 c-112 -17 -226 -80 -287 -158 -183 -231 -135 -603 96
-751 223 -143 535 -80 672 136 55 86 75 165 74 288 -1 117 -18 183 -68 269
-30 52 -120 138 -172 164 -89 45 -217 66 -315 52z m220 -175 c208 -114 229
-445 37 -592 -84 -65 -181 -79 -279 -43 -122 46 -197 157 -205 305 -9 162 56
276 193 342 71 34 178 29 254 -12z"/>
<path d="M22376 1889 c-122 -18 -247 -101 -315 -207 -52 -83 -74 -164 -74
-282 0 -161 43 -270 148 -369 192 -182 516 -171 692 24 84 93 123 202 123 345
0 229 -122 409 -318 470 -73 23 -181 31 -256 19z m187 -155 c64 -22 140 -92
174 -162 26 -52 28 -67 28 -167 0 -104 -2 -113 -32 -171 -96 -184 -315 -230
-462 -98 -61 55 -94 115 -111 201 -34 174 65 357 220 404 43 13 135 10 183 -7z"/>
<path d="M24539 1890 c-132 -17 -259 -108 -323 -230 -137 -260 -49 -589 187
-705 191 -93 414 -60 556 83 32 31 66 72 75 90 l16 32 -72 36 -72 36 -16 -23
c-36 -55 -76 -91 -136 -120 -58 -29 -70 -31 -137 -27 -87 6 -161 41 -213 102
-38 44 -74 131 -74 176 l0 30 365 0 365 0 0 63 c0 124 -53 261 -130 338 -96
96 -239 139 -391 119z m196 -174 c60 -28 97 -66 124 -126 39 -86 56 -80 -249
-80 -304 0 -288 -5 -246 78 51 100 136 151 251 152 53 0 82 -6 120 -24z"/>
<path d="M12152 1518 c3 -345 4 -354 27 -413 33 -81 107 -154 186 -184 50 -19
75 -22 151 -19 111 5 179 34 248 108 l46 49 0 -64 0 -65 80 0 80 0 0 470 0
470 -84 0 -85 0 -3 -302 -3 -303 -27 -51 c-51 -96 -131 -146 -233 -146 -69 -1
-130 25 -164 68 -45 57 -51 108 -51 431 l0 303 -86 0 -85 0 3 -352z"/>
</g>
</svg>
