<svg xmlns="http://www.w3.org/2000/svg" style="background: none;" preserveAspectRatio="xMidYMid" viewBox="196.44 30.28 107.12 89.44">
  <defs>
    <filter id="editing-hover" x="-100%" y="-100%" width="300%" height="300%">
      <feFlood flood-color="#48d48d" result="flood"/>
      <feComposite operator="in" in2="SourceAlpha" in="flood" result="shadow"/>
      <feOffset dx="-4" dy="-4" in="SourceGraphic" result="offset-1"/>
      <feOffset dx="4" dy="4" in="shadow" result="offset-2"/>
      <feMerge>
        <feMergeNode in="offset-2"/>
        <feMergeNode in="offset-1"/>
      </feMerge>
    </filter>
  </defs>
  <g filter="url(#editing-hover)">
    <g transform="translate(188.64000988006592, 119.72000026702881)">
      <path d="M114.92 0L86.45 0L86.45-32.24L86.45-32.24Q86.45-38.22 86.91-44.52L86.91-44.52L86.91-44.52Q87.36-50.83 87.88-55.12L87.88-55.12L87.88-55.12Q88.40-59.41 88.53-60.58L88.53-60.58L88.01-60.58L71.50 0L49.01 0L32.37-60.45L31.85-60.45L31.85-60.45Q31.98-59.28 32.56-55.05L32.56-55.05L32.56-55.05Q33.15-50.83 33.67-44.52L33.67-44.52L33.67-44.52Q34.19-38.22 34.19-32.24L34.19-32.24L34.19 0L7.80 0L7.80-89.44L48.36-89.44L61.88-37.83L62.40-37.83L75.79-89.44L114.92-89.44L114.92 0Z" fill="#1d5f5b"/>
    </g>
  </g>
  <style>
    text {
      font-size: 64px;
      font-family: Arial Black;
      dominant-baseline: central;
      text-anchor: middle;
    }
  </style>
</svg>