<?xml version="1.0" standalone="no"?>
<!DOCTYPE svg PUBLIC "-//W3C//DTD SVG 20010904//EN"
 "http://www.w3.org/TR/2001/REC-SVG-20010904/DTD/svg10.dtd">
<svg width="60" height="22" version="1.0" xmlns="http://www.w3.org/2000/svg"
viewBox="0 0 2560.000000 449.000000"
 preserveAspectRatio="xMidYMid meet">
<metadata>
Created by potrace 1.16, written by Peter Selinger 2001-2019
</metadata>
<g transform="translate(0.000000,449.000000) scale(0.100000,-0.100000)"
fill="currentColor" stroke="none">
<path d="M1955 4479 c-203 -26 -479 -104 -657 -187 -164 -76 -443 -255 -503
-322 l-20 -23 23 7 c80 26 265 67 353 80 411 60 748 4 1129 -185 519 -259 945
-699 1230 -1273 l89 -178 46 71 c154 237 240 605 206 878 -72 589 -589 1033
-1314 1128 -129 16 -462 19 -582 4z"/>
<path d="M10149 3965 c-581 -91 -1005 -451 -1193 -1015 -168 -504 -134 -1159
84 -1605 277 -566 836 -866 1517 -815 241 18 428 68 614 163 148 76 229 135
355 261 246 247 386 546 450 966 24 156 25 498 1 660 -81 551 -339 969 -741
1200 -169 97 -375 165 -571 189 -121 15 -410 12 -516 -4z m406 -516 c425 -51
692 -353 769 -872 33 -219 29 -500 -10 -711 -79 -428 -305 -702 -649 -788
-126 -32 -371 -31 -490 0 -131 36 -251 101 -343 187 -163 153 -260 358 -308
651 -25 150 -26 525 -1 669 79 455 271 721 597 826 144 46 273 58 435 38z"/>
<path d="M14005 3969 c-175 -23 -379 -85 -543 -168 -295 -148 -553 -417 -698
-726 -211 -451 -243 -1038 -84 -1516 82 -248 212 -454 390 -622 317 -298 780
-440 1332 -407 315 19 584 84 871 211 l117 51 0 799 0 799 -487 -2 -487 -3
-78 -235 c-42 -129 -77 -238 -77 -242 -1 -5 114 -8 254 -8 l255 0 -2 -376 -3
-377 -70 -28 c-125 -49 -221 -64 -415 -63 -140 0 -193 5 -267 22 -301 69 -513
233 -643 497 -85 172 -126 353 -137 595 -22 544 169 966 528 1159 164 88 322
125 544 125 253 0 491 -64 706 -191 33 -19 62 -33 64 -31 7 7 165 500 165 514
0 9 -31 29 -76 50 -176 80 -397 141 -607 169 -129 16 -434 19 -552 4z"/>
<path d="M23120 3960 c-481 -87 -797 -395 -839 -817 -19 -180 16 -349 102
-503 30 -53 74 -108 152 -186 138 -139 249 -214 605 -404 316 -169 410 -230
484 -312 75 -83 99 -146 100 -263 1 -77 -3 -98 -26 -147 -94 -201 -331 -297
-662 -269 -235 21 -425 71 -598 156 l-88 44 -80 -246 c-44 -135 -80 -252 -80
-258 0 -7 49 -34 108 -59 438 -185 1024 -222 1397 -89 113 41 254 118 342 187
152 121 262 282 319 472 25 81 27 104 28 254 1 147 -2 173 -22 240 -79 251
-257 443 -592 640 -63 37 -209 118 -324 179 -236 127 -329 187 -399 257 -68
69 -99 138 -105 233 -8 147 57 250 201 321 166 81 389 91 691 29 80 -16 285
-77 354 -106 9 -4 12 56 12 281 l0 286 -27 11 c-39 15 -179 45 -303 64 -72 12
-189 18 -375 21 -234 3 -284 1 -375 -16z"/>
<path d="M6020 2255 l0 -1685 305 0 305 0 0 656 0 657 168 -6 c184 -6 246 -19
324 -69 102 -65 131 -108 483 -731 l284 -502 350 -3 c193 -1 351 0 351 2 0 13
-604 1067 -652 1138 -69 101 -182 212 -244 240 -24 10 -44 22 -44 26 0 5 15
13 33 20 64 23 197 113 275 187 187 176 286 395 299 665 25 521 -270 909 -796
1045 -153 39 -255 45 -858 45 l-583 0 0 -1685z m1225 1151 c162 -45 271 -130
335 -260 128 -260 33 -566 -214 -686 -123 -60 -194 -70 -486 -70 l-250 0 0
521 0 521 278 -5 c218 -3 290 -7 337 -21z"/>
<path d="M16350 2255 l0 -1685 1040 0 1040 0 0 255 0 255 -730 0 -730 0 0 475
0 475 645 0 645 0 0 255 0 255 -645 0 -645 0 0 445 0 445 647 2 646 3 29 85
c16 47 53 160 82 253 l54 167 -1039 0 -1039 0 0 -1685z"/>
<path d="M19290 2256 l0 -1686 300 0 300 0 0 655 0 655 123 0 c250 -1 345 -29
445 -134 81 -84 98 -111 418 -679 l279 -497 353 0 354 0 -20 33 c-11 17 -145
253 -297 522 -152 270 -302 527 -332 573 -72 109 -175 213 -249 250 l-58 29
90 46 c185 96 340 252 429 432 130 265 133 620 5 892 -139 298 -381 476 -760
561 l-115 25 -632 4 -633 4 0 -1685z m1225 1150 c256 -74 396 -266 382 -526
-8 -159 -70 -285 -184 -372 -127 -96 -234 -118 -574 -118 l-249 0 0 521 0 521
283 -5 c227 -3 294 -8 342 -21z"/>
<path d="M1088 3865 c-225 -36 -446 -152 -623 -330 -249 -250 -404 -596 -455
-1015 -14 -122 -12 -437 5 -560 47 -347 162 -658 350 -940 109 -164 195 -266
170 -202 -18 46 -66 258 -79 352 -35 244 -30 450 16 660 53 248 165 503 324
740 209 314 531 619 870 826 102 63 325 180 388 204 15 5 26 15 24 22 -7 19
-174 115 -258 147 -252 98 -506 131 -732 96z"/>
<path d="M3930 3705 c0 -3 11 -44 25 -92 61 -211 93 -517 75 -715 -23 -244
-79 -436 -200 -683 -258 -530 -713 -967 -1308 -1257 l-144 -70 52 -35 c123
-82 307 -157 483 -195 83 -18 135 -22 282 -22 167 -1 187 1 279 27 451 125
791 504 929 1032 43 164 58 279 64 487 6 220 -4 355 -44 543 -66 317 -229 666
-429 917 -51 63 -64 76 -64 63z"/>
<path d="M822 2038 c-54 -83 -103 -190 -141 -311 -51 -160 -66 -261 -65 -447
1 -144 4 -177 27 -263 128 -481 558 -841 1147 -961 143 -29 266 -40 450 -39
365 1 665 70 985 227 128 63 297 169 407 256 57 45 74 69 41 55 -45 -18 -253
-66 -355 -82 -80 -12 -169 -17 -308 -17 -172 0 -210 4 -321 27 -274 58 -508
158 -763 328 -405 269 -743 662 -974 1131 -42 87 -80 158 -83 158 -4 0 -25
-28 -47 -62z"/>
<path d="M24840 920 l0 -30 60 0 60 0 0 -160 0 -160 30 0 30 0 0 160 0 160 60
0 60 0 0 30 0 30 -150 0 -150 0 0 -30z"/>
<path d="M25190 760 l0 -190 35 0 34 0 3 133 3 132 51 -130 c44 -114 53 -130
75 -133 22 -2 28 8 81 140 l57 143 0 -142 1 -143 30 0 30 0 0 191 0 190 -46
-3 -46 -3 -51 -133 c-27 -73 -53 -129 -57 -125 -4 4 -29 65 -55 136 l-49 127
-48 0 -48 0 0 -190z"/>
</g>
</svg>
